<svg xmlns="http://www.w3.org/2000/svg" id="tb" height="2.9133858267716537in" viewBox="-104.88188976377953 -104.88188976377953 209.76377952755905 209.76377952755905" width="2.9133858267716537in"><g fill="none" stroke="black" stroke-width="0.5"><path d="M-1.9322743986537014,83.10665712240517L-1.9322743986537005,86.97208303507516L-25.75688394996783,86.97208303507517L-26.854443511753573,86.64236908000927L-28.36247128980776,86.16049836472246L-29.861859584353653,85.65238232697826L-31.352151667191812,85.11817574384399L-32.83289358091704,84.55804133981988L-34.303634277198135,83.97214973727151L-35.76392575417163,83.36067940445669L-36.342039663607885,83.10665712240517Z"/><path d="M-1.9322743986537034,75.37580529706514L-1.9322743986537025,79.24123120973516L-44.143678221909894,79.24123120973516L-44.28157094194428,79.16567268100529L-45.65645813971707,78.38079539184821L-47.01743793805644,77.57204255312298L-48.36409576933174,76.7396605187788L-49.69602142852218,75.88390284044684L-50.457288297765395,75.37580529706517Z"/><path d="M-1.9322743986537048,67.64495347172516L-1.9322743986537043,71.51037938439514L-55.80189364669172,71.51037938439515L-56.12063097799778,71.26384802095595L-57.35580917401996,70.27355413038336L-58.57351623494954,69.26185423446744L-59.773381235419556,68.22905650679705L-60.42848960333806,67.64495347172515Z"/><path d="M-1.9322743986537068,59.91410164638513L-1.9322743986537059,63.77952755905514L-64.4981150011931,63.77952755905514L-65.49247957056336,62.759830909761476L-66.57781482567715,61.607270911478906L-67.64286983344127,60.43594474167366L-68.1009877724095,59.914101646385134Z"/><path d="M-1.9322743986537088,52.18324982104512L-1.9322743986537079,56.04867573371513L-71.31629377951006,56.04867573371513L-71.69389359481967,55.57019774426924L-72.6528079444012,54.31050316390435L-73.58959154487931,53.034265078158086L-74.19168455356518,52.18324982104513Z"/><path d="M-1.9322743986537103,44.45239799570511L-1.9322743986537096,48.31782390837511L-76.764860293383,48.31782390837512L-77.10981431793941,47.77172586347932L-77.93180169570893,46.41869817846263L-78.73005029173963,45.051530908312756L-79.06598472809505,44.45239799570511Z"/><path d="M-1.9322743986537119,36.721546170365094L-1.9322743986537112,40.58697208303511L-81.11941523892814,40.586972083035114L-81.68090377912579,39.4498569572528L-82.35695831936054,38.0183202220406L-82.94191289008847,36.7215461703651Z"/><path d="M-1.932274398653714,28.99069434502509L-1.9322743986537132,32.856120257695096L-84.54533988110121,32.8561202576951L-84.80836486450534,32.180778504123374L-85.35708016568007,30.69576716278933L-85.87979487336376,29.201405593420933L-85.94939689659115,28.99069434502509Z"/><path d="M-1.932274398653716,21.259842519685073L-1.9322743986537152,25.125268432355078L-87.15649208757006,25.12526843235508L-87.2903830845752,24.666784895292245L-87.70758309192465,23.139600780818277L-88.09806651982184,21.605368119788114L-88.17961411156477,21.259842519685073Z"/><path d="M-1.9322743986537172,13.528990694345058L-1.9322743986537165,17.394416607015064L-89.02243586600473,17.394416607015067L-89.1080687819971,16.96506215919601L-89.39057835155305,15.40732806483223L-89.64585868499712,13.844900749085763L-89.69182895093918,13.52899069434506Z"/><path d="M-1.9322743986537196,5.798138869005046L-1.9322743986537185,9.663564781675051L-90.18934130774423,9.663564781675053L-90.24758827106501,9.134225056283684L-90.3932573344192,7.557796279073771L-90.51139173593018,5.979065323903235L-90.52175860563449,5.7981388690050455Z"/><path d="M-1.9322743986537212,-1.9327129563349688L-1.9322743986537205,1.9327129563350383L-90.68466163908334,1.9327129563350383L-90.70026912040645,1.2338709852971577L-90.70798904802936,-0.34925489989060177L-90.68807844348024,-1.9322743986525464L-90.68806526952693,-1.9327129563349692Z"/><path d="M-1.9322743986537227,-9.663564781674983L-1.9322743986537223,-5.798138869004976L-90.51974371287457,-5.798138869004976L-90.46266615542172,-6.675873588919152L-90.33237819400276,-8.253648038180932L-90.19113765625332,-9.663564781674982Z"/><path d="M-1.932274398653725,-17.394416607014996L-1.9322743986537239,-13.52899069434499L-89.69086999991137,-13.52899069434499L-89.53658767814301,-14.534810734121102L-89.26928339773855,-16.095225931211765L-89.02331481036322,-17.394416607014996Z"/><path d="M-1.9322743986537265,-25.125268432355014L-1.9322743986537259,-21.259842519685L-88.17892202967883,-21.259842519685005L-87.92908170496383,-22.28312919327772L-87.52679545255053,-23.814309436342942L-87.15779271647764,-25.125268432355014Z"/><path d="M-1.9322743986537285,-32.856120257695025L-1.9322743986537276,-28.990694345025013L-85.94760473950362,-28.990694345025023L-85.65238232697875,-29.861859584352217L-85.11817574384453,-31.352151667190373L-84.55804133982045,-32.83289358091559L-84.5487886449609,-32.85612025769502Z"/><path d="M-1.9322743986537303,-40.58697208303503L-1.9322743986537292,-36.72154617036503L-82.9399025999379,-36.72154617036504L-82.72381660116291,-37.213323192906L-82.06175532196818,-38.65138509290372L-81.37469723715229,-40.077673406577766L-81.11831714784003,-40.58697208303503Z"/><path d="M-1.932274398653732,-48.31782390837505L-1.9322743986537312,-44.45239799570504L-79.06815320807137,-44.45239799570504L-78.38079539184903,-45.65645813971567L-77.57204255312382,-47.01743793805505L-76.76826159684161,-48.31782390837504Z"/><path d="M-1.9322743986537343,-56.04867573371506L-1.932274398653733,-52.183249821045045L-74.19395575675661,-52.183249821045045L-74.1033102811797,-52.31405797196122L-73.17901778598616,-53.59937137691852L-72.23243425307395,-54.868357894125644L-71.31950270190268,-56.04867573371506Z"/><path d="M-1.9322743986537363,-63.77952755905507L-1.9322743986537345,-59.914101646385056L-68.10358838096214,-59.91410164638506L-67.17547554756607,-60.95503868492632L-66.1014322877388,-62.11812863916615L-65.00725389129771,-63.26229680967067L-64.49504309283215,-63.77952755905506Z"/><path d="M-1.9322743986537372,-71.51037938439508L-1.9322743986537365,-67.64495347172506L-60.43357126497893,-67.64495347172507L-59.24620919764516,-68.68732016778189L-58.03842668436297,-69.71084767901145L-56.81296510408185,-70.71314059073383L-55.80273893438298,-71.51037938439507Z"/><path d="M-1.9322743986537392,-79.24123120973509L-1.9322743986537385,-75.37580529706507L-50.46280552756993,-75.37580529706509L-50.43371832935278,-75.39563191324824L-49.11020181802421,-76.26433854374824L-47.771725863480654,-77.10981431793857L-46.41869817846398,-77.93180169570813L-45.05153090831413,-78.73005029173885L-44.139849106378946,-79.24123120973509Z"/><path d="M-1.9322743986537425,-86.9720830350751L-1.9322743986537403,-83.1066571224051L-36.345724802782115,-83.10665712240511L-35.12094409328893,-83.63360892678604L-33.655987268584326,-84.23381611383519L-32.18077850412485,-84.80836486450478L-30.695767162790816,-85.35708016567955L-29.20140559342242,-85.87979487336325L-27.698148993029907,-86.37634976359227L-26.186455268136115,-86.84659358093683L-25.75674117171261,-86.9720830350751Z"/></g><g fill="none" stroke="black" stroke-width="0.5"><path d="M1.9323030335651241,-84.89294102691082L1.932282707989138,-89.006433966422L6.045816137042835,-90.5036376922565L6.675873588920374,-90.46266615542163L8.253648038182172,-90.33237819400264L9.828908346296657,-90.17457411511634L11.401174673714088,-89.98930198741388L12.969968092880247,-89.77661824658011L14.534810734122411,-89.5365876781428L14.64075464309695,-89.5184391363928Z"/><path d="M1.9323436847171005,-76.66595514788844L1.9323233591411113,-80.7794480873996L21.85977224093542,-88.03244632523408L22.283129193279102,-87.92908170496348L23.81430943634434,-87.52679545255015L25.33823561006087,-87.09784769035085L26.854443511753583,-86.64236908000927L28.179244971558806,-86.21904595802211Z"/><path d="M1.9323843358690769,-68.43896926886609L1.9323640102930884,-72.55246220837725L33.82813310372807,-84.16157275741548L34.30363427719814,-83.97214973727151L35.76392575417164,-83.36067940445669L37.21332319290749,-82.72381660116224L38.651385092905215,-82.06175532196747L38.95665719982332,-81.91470253669532Z"/><path d="M1.932424987021053,-60.21198338984372L1.9324046614450652,-64.3254763293549L43.65252617664115,-79.51035873085524L44.28157094194438,-79.16567268100523L45.656458139717174,-78.38079539184815L47.01743793805657,-77.5720425531229L47.98523757678297,-76.97383637675688Z"/><path d="M1.9324656381730296,-51.98499751082135L1.932445312597042,-56.098490450332534L51.99938635537271,-74.32136671066372L52.31405797196273,-74.10331028117864L53.599371376920026,-73.17901778598505L54.86835789412715,-72.23243425307281L55.73025296131888,-71.56579076583006Z"/><path d="M1.9325062893250058,-43.758011631798986L1.9324859637490173,-47.87150457131017L59.20606336018908,-68.71738195355593L59.77338123541982,-68.22905650679682L60.95503868492779,-67.17547554756474L62.11812863916762,-66.10143228773742L62.44960818986086,-65.78443538764866Z"/><path d="M1.9325469404769822,-35.53102575277662L1.9325266149009939,-39.64451869228781L65.47907944464984,-62.77357241254109L65.49247957056367,-62.75983090976114L66.57781482567748,-61.60727091147855L67.6428698334416,-60.435944741673296L68.3004013208809,-59.686949259357434Z"/><path d="M1.9325875916289583,-27.30403987375425L1.9325672660529705,-31.41753281326543L70.93467515263328,-56.53224618560583L71.69389359482003,-55.57019774426878L72.65280794440156,-54.310503163903874L73.38639115967315,-53.311097497626484Z"/><path d="M1.932628242780935,-19.077053994731887L1.932607917204947,-23.19054693424307L75.66308218291314,-50.026244925291074L76.26433854374946,-49.11020181802231L77.10981431793978,-47.77172586347872L77.77270196414564,-46.68058339386305Z"/><path d="M1.932668893932911,-10.850068115709515L1.9326485683569226,-14.963561055220694L79.71724969028645,-43.274840547872486L80.2543658266943,-42.27644760239008L80.97996844433958,-40.86937688387576L81.50251609934774,-39.811124043590276Z"/><path d="M1.9327095450848875,-2.6230822366871456L1.9326892195088996,-6.73657517619833L83.1305543177585,-36.290181157923726L83.63360892678699,-35.12094409328666L84.23381611383611,-33.655987268582024L84.60145310568815,-32.71204419693252Z"/><path d="M85.9203638731923,-29.078588120541387L86.37634976359305,-27.698148993027473L86.84659358093757,-26.186455268133653L87.08001050939176,-25.387164640969075L22.639153013159692,-1.9326106417505322L11.337557149680517,-1.9326664851539113Z"/><path d="M88.08901969977236,-21.640913614952815L88.0980665198221,-21.60536811978709L88.46171442323221,-20.06455425433172L88.79841603148114,-18.517628531280785L88.93453251547957,-17.835154775145L45.24234474011807,-1.9324989549437743L33.94074887663888,-1.932554798347153Z"/><path d="M89.62493846412457,-13.972941652596264L89.64585868499731,-13.844900749084633L89.873832021467,-12.27825614245141L90.07442891807558,-10.707871460055058L90.14688363131799,-10.04941381995794L67.84553646707639,-1.9323872681370164L56.54394060359724,-1.9324431115403957Z"/><path d="M90.50487080049487,-6.066210156371697L90.51139173593026,-5.979065323902005L90.60195549071491,-4.398513087513284L90.66492101217624,-2.8166210214287517L90.68581872729376,-2.0185694782628296L90.44872819403477,-1.9322755813302586L79.14713233055558,-1.9323314247336376Z"/></g><g fill="none" stroke="black" stroke-width="0.5"><path d="M14.63580042545514,89.51663594863713L13.844900749084664,89.64585868499731L12.278256142451438,89.873832021467L10.707871460055085,90.07442891807557L9.134225056282517,90.24758827106513L7.557796279072582,90.3932573344193L6.052104133945915,90.50592633596241L1.9322827079891358,89.006433966422L1.9323030335651243,84.8929410269108Z"/><path d="M28.17692381878178,86.21820112750208L27.698148993027516,86.37634976359304L26.186455268133695,86.84659358093755L24.666784895291315,87.29038308457548L23.139600780817315,87.7075830919249L21.861180244567965,88.03295879664606L1.9323233591411124,80.77944808739962L1.9323436847171007,76.66595514788847Z"/><path d="M38.95560333295986,81.91431896052613L38.01832022203989,82.35695831936087L36.575202738196296,83.00792613228178L35.1209440932867,83.63360892678698L33.830347867388014,84.16237886546365L1.9323640102930884,72.55246220837725L1.9323843358690769,68.43896926886609Z"/><path d="M47.986351322582145,76.97424174707632L47.771725863478764,77.10981431793975L46.41869817846206,77.93180169570928L45.05153090831216,78.73005029173997L43.67064050542361,79.50431695177669L43.65663214301854,79.51185318039953L1.932404661445065,64.3254763293549L1.9324249870210533,60.211983389843724Z"/><path d="M55.7318072181989,71.56635646907081L55.57019774426881,71.69389359482L54.31050316390392,72.65280794440153L53.034265078157624,73.58959154487965L51.999760778522635,74.32150298954532L1.9324453125970413,56.09849045033255L1.9324656381730294,51.98499751082135Z"/><path d="M62.449740469546036,65.78448353351666L61.607270911478594,66.57781482567745L60.43594474167333,67.64286983344157L59.246209197643616,68.68732016778323L59.209331892882794,68.71857160216618L1.9324859637490175,47.871504571310176L1.9325062893250058,43.75801163179899Z"/><path d="M68.30272564294226,59.68779524340263L68.22905650679685,59.77338123541979L67.17547554756477,60.955038684927764L66.10143228773745,62.118128639167594L65.47577547137277,62.77236986461344L1.9325266149009939,39.64451869228781L1.932546940476982,35.53102575277662Z"/><path d="M73.38633542047332,53.31107721021687L73.17901778598508,53.59937137692L72.23243425307284,54.868357894127115L71.2638480209558,56.12063097799797L70.93402783154626,56.532010579998165L1.93256726605297,31.417532813265442L1.9325875916289583,27.30403987375425Z"/><path d="M77.77230244791821,46.68043798184816L77.57204255312293,47.017437938056524L76.73966051877875,48.36409576933185L75.88390284044677,49.6960214285223L75.66341795061692,50.02636713474088L1.9326079172049466,23.190546934243066L1.932628242780935,19.07705399473189Z"/><path d="M81.50301023360647,39.81130389375219L81.37469723715157,40.07767340657922L80.66285163126282,41.4917536726925L79.92643533936861,42.89319514869742L79.71730176773488,43.2748595025136L1.932648568356923,14.963561055220703L1.932668893932911,10.850068115709519Z"/><path d="M84.60347747214433,32.71278100606582L84.5580413398199,32.832893580917L83.97214973727154,34.3036342771981L83.36067940445672,35.763925754171595L83.12959679709249,36.28983264890261L1.9326892195088992,6.736575176198334L1.9327095450848877,2.6230822366871474Z"/><path d="M11.337557149680519,1.932666485153911L22.639153013159685,1.9326106417505324L87.08283974844197,25.38819439976898L86.64236908000929,26.854443511753537L86.16049836472247,28.36247128980773L85.91809851738353,29.077763598456976Z"/><path d="M33.94074887663885,1.9325547983471532L45.24234474011804,1.9324989549437745L88.93638683133693,17.83582969092202L88.65318767795536,19.200874216028204L88.30458390730136,20.74516129320003L88.08613780315471,21.63986469036577Z"/><path d="M56.543940603597214,1.9324431115403953L67.8455364670764,1.9323872681370167L90.14852008750394,10.0500094412993L89.98930198741388,11.40117467371406L89.77661824658011,12.969968092880217L89.62288707284131,13.972195007230336Z"/><path d="M79.14713233055558,1.9323314247336376L90.44872819403474,1.93227558133026L90.68548979846297,2.018449757959237L90.64054337172203,3.5147053079154675L90.56539831239817,5.096065603892731L90.50237067852116,6.065300186391235Z"/></g><g fill="none" stroke="black" stroke-width="0.5"><path d="M104.88188976377953,0L104.86591574396166,1.8304413680678455L104.81799855034926,3.6603251659630938L104.73815277898365,5.489093993354424L104.6264027516603,7.316190789541331L104.48278250852009,9.14105900314021L104.30733579768031,10.963142761615307L104.10011606190874,12.781887040602868L103.86118642234423,14.596737832976942L103.59061965926956,16.407142317605317L103.28849818994182,18.21254902774419L102.95491404348728,20.012408019020288L102.58996883286844,21.806171036949245L102.19377372393176,23.593291683939224L101.76644940154546,25.373225585728928L101.30812603283772,27.145430557209263L100.81894322754651,28.90936676757818L100.29904999549316,30.664496904778375L99.74860470119248,32.41028633916772L99.16777501561337,34.14620328637266L98.55673786510471,35.87171896927487L97.91567937750179,37.5863077790819L97.24479482542998,39.28944743543268L96.54428856682287,40.9806191454892L95.81437398267278,42.659307761965835L95.05527341203288,44.32500194004818L94.26721808429058,45.97719429315365L93.45044804873275,47.61538154748635L92.60521210142444,49.239064695339124L91.73176770942322,50.84774914709615L90.83038093235213,52.440944881889784L89.90132634135539,54.018166596865555L88.94488693546135,55.578933855010185L87.96135405537831,57.12277123149736L86.95102729474924,58.649208458506706L85.91421440889266,60.15778056847195L84.85123122105746,61.64802803571454L83.76240152621997,63.119496916419585L82.64805699245301,64.5717389869116L81.50853705989644,66.00431188018771L80.34418883736049,67.416779220667L79.15536699659306,68.80871075711467L77.9424336642432,70.17968249370077L76.70575831155391,71.52927681915342L75.44571764181754,72.85708263396732L74.16269547562841,74.1626954756285L72.85708263396722,75.44571764181764L71.52927681915334,76.70575831155399L70.17968249370067,77.94243366424328L68.80871075711457,79.15536699659314L67.4167792206669,80.34418883736059L66.00431188018761,81.50853705989653L64.5717389869115,82.64805699245309L63.11949691641948,83.76240152622006L61.64802803571443,84.85123122105753L60.15778056847184,85.91421440889273L58.6492084585066,86.95102729474931L57.122771231497246,87.96135405537838L55.57893385501007,88.94488693546143L54.01816659686544,89.90132634135544L52.44094488188967,90.8303809323522L50.84774914709604,91.7317677094233L49.239064695338996,92.60521210142451L47.61538154748623,93.45044804873281L45.97719429315353,94.26721808429063L44.325001940048054,95.05527341203293L42.65930776196571,95.81437398267283L40.98061914548907,96.54428856682293L39.28944743543255,97.24479482543003L37.58630777908177,97.91567937750183L35.87171896927474,98.55673786510476L34.146203286372526,99.16777501561343L32.41028633916759,99.74860470119252L30.664496904778243,100.2990499954932L28.909366767578046,100.81894322754655L27.145430557209128,101.30812603283775L25.37322558572879,101.76644940154549L23.593291683939086,102.1937737239318L21.806171036949102,102.58996883286846L20.012408019020143,102.95491404348729L18.21254902774404,103.28849818994185L16.40714231760516,103.59061965926959L14.596737832976785,103.86118642234425L12.781887040602708,104.10011606190875L10.963142761615144,104.30733579768034L9.141059003140045,104.48278250852009L7.31619078954116,104.62640275166031L5.489093993354252,104.73815277898366L3.6603251659629192,104.81799855034926L1.8304413680676683,104.86591574396166L-1.79885498681726e-13,104.88188976377953L-1.830441368068028,104.86591574396165L-3.6603251659632785,104.81799855034924L-5.4890939933546115,104.73815277898365L-7.31619078954152,104.6264027516603L-9.141059003140402,104.48278250852006L-10.963142761615503,104.30733579768031L-12.781887040603065,104.10011606190871L-14.596737832977139,103.86118642234419L-16.407142317605516,103.59061965926954L-18.21254902774439,103.28849818994178L-20.012408019020494,102.95491404348724L-21.80617103694945,102.5899688328684L-23.593291683939434,102.19377372393171L-25.373225585729138,101.76644940154542L-27.145430557209476,101.30812603283766L-28.909366767578394,100.81894322754644L-30.664496904778584,100.2990499954931L-32.410286339167925,99.7486047011924L-34.14620328637287,99.1677750156133L-35.87171896927508,98.55673786510464L-37.5863077790821,97.9156793775017L-39.28944743543288,97.24479482542989L-40.9806191454894,96.54428856682279L-42.65930776196604,95.81437398267269L-44.32500194004836,95.05527341203279L-45.97719429315381,94.26721808429049L-47.615381547486486,93.45044804873268L-49.23906469533923,92.60521210142439L-50.84774914709625,91.73176770942318L-52.44094488188987,90.83038093235209L-54.018166596865605,89.90132634135534L-55.57893385501022,88.94488693546133L-57.122771231497374,87.9613540553783L-58.649208458506706,86.95102729474924L-60.15778056847193,85.91421440889268L-61.648028035714496,84.85123122105747L-63.11949691641953,83.76240152622003L-64.57173898691151,82.64805699245306L-66.00431188018763,81.50853705989653L-67.4167792206669,80.34418883736059L-68.80871075711454,79.15536699659316L-70.17968249370061,77.94243366424332L-71.52927681915328,76.70575831155405L-72.85708263396714,75.44571764181771L-74.16269547562831,74.16269547562858L-75.44571764181744,72.85708263396744L-76.70575831155378,71.52927681915355L-77.94243366424307,70.17968249370091L-79.1553669965929,68.80871075711482L-80.34418883736033,67.41677922066718L-81.50853705989627,66.00431188018793L-82.64805699245282,64.57173898691183L-83.76240152621978,63.11949691641984L-84.85123122105725,61.648028035714816L-85.91421440889245,60.157780568472255L-86.95102729474901,58.64920845850703L-87.96135405537808,57.1227712314977L-88.94488693546113,55.57893385501055L-89.90132634135514,54.01816659686594L-90.8303809323519,52.4409448818902L-91.731767709423,50.8477491470966L-92.6052121014242,49.23906469533958L-93.4504480487325,47.615381547486834L-94.26721808429032,45.977194293154156L-95.05527341203263,44.325001940048715L-95.81437398267252,42.659307761966396L-96.54428856682263,40.98061914548978L-97.24479482542974,39.28944743543329L-97.91567937750155,37.58630777908253L-98.55673786510448,35.871718969275534L-99.16777501561315,34.14620328637335L-99.74860470119225,32.41028633916843L-100.29904999549294,30.664496904779114L-100.8189432275463,28.90936676757895L-101.3081260328375,27.14543055721005L-101.76644940154526,25.373225585729745L-102.19377372393156,23.593291683940066L-102.58996883286825,21.806171036950108L-102.9549140434871,20.012408019021176L-103.28849818994166,18.2125490277451L-103.59061965926942,16.407142317606247L-103.86118642234409,14.596737832977897L-104.10011606190861,12.781887040603847L-104.30733579768021,10.963142761616309L-104.48278250851999,9.141059003141233L-104.62640275166024,7.316190789542376L-104.7381527789836,5.489093993355491L-104.8179985503492,3.6603251659641827L-104.86591574396164,1.8304413680689553L-104.88188976377953,1.130690300325451e-12L-104.86591574396168,-1.8304413680666942L-104.81799855034929,-3.6603251659619227L-104.73815277898372,-5.489093993353233L-104.6264027516604,-7.31619078954012L-104.48278250852019,-9.141059003138983L-104.30733579768045,-10.96314276161406L-104.10011606190889,-12.781887040601603L-103.8611864223444,-14.596737832975657L-103.59061965926976,-16.407142317604016L-103.28849818994205,-18.212549027742874L-102.95491404348753,-20.012408019018956L-102.58996883286872,-21.806171036947898L-102.19377372393207,-23.59329168393786L-101.7664494015458,-25.37322558572755L-101.30812603283809,-27.14543055720787L-100.81894322754691,-28.909366767576778L-100.2990499954936,-30.664496904776954L-99.74860470119295,-32.410286339166284L-99.16777501561387,-34.14620328637121L-98.55673786510525,-35.87171896927341L-97.91567937750234,-37.58630777908042L-97.24479482543057,-39.28944743543119L-96.54428856682351,-40.9806191454877L-95.81437398267344,-42.65930776196433L-95.05527341203359,-44.32500194004667L-94.26721808429131,-45.977194293152124L-93.45044804873352,-47.615381547484816L-92.60521210142527,-49.23906469533758L-91.73176770942409,-50.84774914709462L-90.83038093235302,-52.44094488188824L-89.90132634135631,-54.018166596864006L-88.94488693546232,-55.578933855008636L-87.96135405537932,-57.122771231495804L-86.95102729475028,-58.64920845850516L-85.91421440889374,-60.1577805684704L-84.85123122105858,-61.648028035712976L-83.76240152622114,-63.119496916418036L-82.64805699245423,-64.57173898691005L-81.50853705989769,-66.00431188018617L-80.34418883736178,-67.41677922066546L-79.1553669965944,-68.80871075711313L-77.94243366424458,-70.17968249369923L-76.70575831155533,-71.5292768191519L-75.44571764181902,-72.8570826339658L-74.1626954756299,-74.16269547562699L-72.85708263396877,-75.44571764181613L-71.52927681915493,-76.70575831155251L-70.1796824937023,-77.94243366424182L-68.80871075711624,-79.15536699659168L-67.41677922066862,-80.34418883735913L-66.00431188018938,-81.50853705989509L-64.5717389869133,-82.64805699245169L-63.11949691642133,-83.76240152621867L-61.64802803571632,-84.85123122105615L-60.157780568473775,-85.91421440889138L-58.64920845850858,-86.95102729474796L-57.12277123149927,-87.96135405537707L-55.578933855012146,-88.94488693546013L-54.018166596867545,-89.90132634135418L-52.440944881891824,-90.83038093235095L-50.847749147098234,-91.73176770942209L-49.23906469534123,-92.60521210142332L-47.6153815474885,-93.45044804873166L-45.97719429315584,-94.26721808428951L-44.325001940050406,-95.05527341203184L-42.6593077619681,-95.81437398267177L-40.98061914549151,-96.54428856682189L-39.28944743543502,-97.24479482542903L-37.58630777908428,-97.91567937750087L-35.871718969277296,-98.55673786510384L-34.14620328637512,-99.16777501561253L-32.41028633917021,-99.74860470119168L-30.664496904780904,-100.2990499954924L-28.909366767580746,-100.81894322754579L-27.145430557211856,-101.30812603283701L-25.373225585731557,-101.7664494015448L-23.59329168394189,-102.19377372393114L-21.806171036951937,-102.58996883286785L-20.01240801902301,-102.95491404348674L-18.212549027746938,-103.28849818994134L-16.407142317608095,-103.59061965926912L-14.596737832979748,-103.86118642234383L-12.781887040605703,-104.1001160619084L-10.963142761618169,-104.30733579768003L-9.141059003143097,-104.48278250851983L-7.31619078954424,-104.62640275166011L-5.489093993357358,-104.73815277898349L-3.6603251659660505,-104.81799855034915L-1.8304413680708245,-104.86591574396161L-3.0001890859659667e-12,-104.88188976377953L1.8304413680648253,-104.86591574396171L3.660325165960054,-104.81799855034936L5.489093993351365,-104.73815277898382L7.316190789538255,-104.62640275166052L9.14105900313712,-104.48278250852034L10.9631427616122,-104.30733579768064L12.781887040599747,-104.10011606190912L14.596737832973806,-103.86118642234466L16.40714231760217,-103.59061965927006L18.21254902774103,-103.28849818994237L20.012408019017123,-102.95491404348789L21.80617103694607,-102.58996883286912L23.59329168393604,-102.1937737239325L25.373225585725738,-101.76644940154625L27.145430557206065,-101.30812603283856L28.909366767574976,-100.81894322754744L30.664496904775163,-100.29904999549416L32.4102863391645,-99.74860470119353L34.14620328636944,-99.1677750156145L35.871718969271654,-98.55673786510589L37.58630777907868,-97.91567937750303L39.28944743542946,-97.24479482543128L40.98061914548598,-96.54428856682424L42.65930776196262,-95.8143739826742L44.32500194004497,-95.05527341203438L45.977194293150454,-94.26721808429214L47.61538154748315,-93.45044804873437L49.239064695335934,-92.60521210142615L50.84774914709298,-91.731767709425L52.44094488188662,-90.83038093235396L54.0181665968624,-89.90132634135728L55.57893385500705,-88.94488693546332L57.12277123149424,-87.96135405538034L58.649208458503594,-86.95102729475133L60.157780568468866,-85.91421440889482L61.64802803571148,-84.85123122105968L63.119496916416544,-83.76240152622228L64.57173898690857,-82.64805699245538L66.00431188018472,-81.50853705989887L67.41677922066403,-80.34418883736299L68.80871075711171,-79.15536699659562L70.17968249369784,-77.94243366424583L71.52927681915054,-76.7057583115566L72.85708263396445,-75.4457176418203L74.16269547562567,-74.16269547563124L75.44571764181484,-72.85708263397012L76.70575831155122,-71.5292768191563L77.94243366424055,-70.1796824937037L79.15536699659046,-68.80871075711767L80.34418883735793,-67.41677922067005L81.50853705989391,-66.00431188019083L82.64805699245053,-64.57173898691478L83.76240152621753,-63.11949691642282L84.85123122105506,-61.648028035717836L85.9142144088903,-60.15778056847532L86.95102729474694,-58.64920845851013L87.96135405537605,-57.122771231500835L88.94488693545914,-55.57893385501372L89.90132634135323,-54.01816659686916L90.83038093235002,-52.440944881893444L91.73176770942118,-50.84774914709987L92.60521210142245,-49.23906469534288L93.4504480487308,-47.61538154749016L94.26721808428869,-45.977194293157524L95.05527341203106,-44.325001940052104L95.81437398267101,-42.659307761969814L96.54428856682115,-40.98061914549323L97.24479482542833,-39.289447435436756L97.9156793775002,-37.58630777908603L98.5567378651032,-35.871718969279044L99.16777501561194,-34.14620328637688L99.7486047011911,-32.41028633917199L100.29904999549184,-30.66449690478269L100.81894322754526,-28.909366767582547L101.30812603283653,-27.14543055721367L101.76644940154435,-25.373225585733373L102.19377372393072,-23.593291683943708L102.58996883286747,-21.806171036953764L102.9549140434864,-20.012408019024846L103.28849818994101,-18.212549027748782L103.59061965926884,-16.407142317609942L103.86118642234356,-14.5967378329816L104.10011606190815,-12.78188704060756L104.30733579767983,-10.963142761620027L104.48278250851966,-9.141059003144958L104.62640275165998,-7.316190789546105L104.7381527789834,-5.489093993359225L104.81799855034907,-3.6603251659679197L104.86591574396157,-1.8304413680726939L104.88188976377953,-4.869687871606483e-12L104.88188976377953,-2.568865411754763e-14"/><path d="M0,0L0,0L0,0L0,0L0,0L0,0L0,0L0,0L0,0L0,0L0,0L0,0L0,0L0,0L0,0L0,0L0,0L0,0L0,0L0,0L0,0L0,0L0,0L0,0L0,0L0,0L0,0L0,0L0,0L0,0L0,0L0,0L0,0L0,0L0,0L0,0L0,0L0,0L0,0L0,0L0,0L0,0L0,0L0,0L0,0L0,0L0,0L0,0L0,0L0,0L0,0L0,0L0,0L0,0L0,0L0,0L0,0L0,0L0,0L0,0L0,0L0,0L0,0L0,0L0,0L0,0L0,0L0,0L0,0L0,0L0,0L0,0L0,0L0,0L0,0L0,0L0,0L0,0L0,0L0,0L0,0L0,0L0,0L0,0L0,0L0,0L0,0L0,0L0,0L0,0L0,0L0,0L0,0L0,0L0,0L0,0L0,0L0,0L0,0L0,0L0,0L0,0L0,0L0,0L0,0L0,0L0,0L0,0L0,0L0,0L0,0L0,0L0,0L0,0L0,0L0,0L0,0L0,0L0,0L0,0L0,0L0,0L0,0L0,0L0,0L0,0L0,0L0,0L0,0L0,0L0,0L0,0L0,0L0,0L0,0L0,0L0,0L0,0L0,0L0,0L0,0L0,0L0,0L0,0L0,0L0,0L0,0L0,0L0,0L0,0L0,0L0,0L0,0L0,0L0,0L0,0L0,0L0,0L0,0L0,0L0,0L0,0L0,0L0,0L0,0L0,0L0,0L0,0L0,0L0,0L0,0L0,0L0,0L0,0L0,0L0,0L0,0L0,0L0,0L0,0L0,0L0,0L0,0L0,0L0,0L0,0L0,0L0,0L0,0L0,0L0,0L0,0L0,0L0,0L0,0L0,0L0,0L0,0L0,0L0,0L0,0L0,0L0,0L0,0L0,0L0,0L0,0L0,0L0,0L0,0L0,0L0,0L0,0L0,0L0,0L0,0L0,0L0,0L0,0L0,0L0,0L0,0L0,0L0,0L0,0L0,0L0,0L0,0L0,0L0,0L0,0L0,0L0,0L0,0L0,0L0,0L0,0L0,0L0,0L0,0L0,0L0,0L0,0L0,0L0,0L0,0L0,0L0,0L0,0L0,0L0,0L0,0L0,0L0,0L0,0L0,0L0,0L0,0L0,0L0,0L0,0L0,0L0,0L0,0L0,0L0,0L0,0L0,0L0,0L0,0L0,0L0,0L0,0L0,0L0,0L0,0L0,0L0,0L0,0L0,0L0,0L0,0L0,0L0,0L0,0L0,0L0,0L0,0L0,0L0,0L0,0L0,0L0,0L0,0L0,0L0,0L0,0L0,0L0,0L0,0L0,0L0,0L0,0L0,0L0,0L0,0L0,0L0,0L0,0L0,0L0,0L0,0L0,0L0,0L0,0L0,0L0,0L0,0L0,0L0,0L0,0L0,0L0,0L0,0L0,0L0,0L0,0L0,0L0,0L0,0L0,0L0,0L0,0L0,0L0,0L0,0L0,0L0,0L0,0L0,0L0,0L0,0L0,0L0,0L0,0L0,0L0,0L0,0L0,0L0,0L0,0L0,0L0,0L0,0L0,0L0,0L0,0L0,0L0,0L0,0L0,0L0,0"/></g></svg>